<svg width="1200" height="800" viewBox="0 0 1200 800" fill="none" xmlns="http://www.w3.org/2000/svg">
<g clip-path="url(#clip0_30_2)">
<rect width="1200" height="800" fill="white"/>
<rect width="1200" height="800" fill="#D9D9D9"/>
<path d="M485.886 365.091V400H481.659V369.523H481.455L472.932 375.182V370.886L481.659 365.091H485.886ZM495.926 400V396.932L507.449 384.318C508.801 382.841 509.915 381.557 510.79 380.466C511.665 379.364 512.313 378.33 512.733 377.364C513.165 376.386 513.381 375.364 513.381 374.295C513.381 373.068 513.085 372.006 512.494 371.108C511.915 370.21 511.119 369.517 510.108 369.028C509.097 368.54 507.96 368.295 506.699 368.295C505.358 368.295 504.188 368.574 503.188 369.131C502.199 369.676 501.432 370.443 500.886 371.432C500.352 372.42 500.085 373.58 500.085 374.909H496.062C496.062 372.864 496.534 371.068 497.477 369.523C498.42 367.977 499.705 366.773 501.33 365.909C502.966 365.045 504.801 364.614 506.835 364.614C508.881 364.614 510.693 365.045 512.273 365.909C513.852 366.773 515.091 367.937 515.989 369.403C516.886 370.869 517.335 372.5 517.335 374.295C517.335 375.58 517.102 376.835 516.636 378.062C516.182 379.278 515.386 380.636 514.25 382.136C513.125 383.625 511.562 385.443 509.562 387.591L501.722 395.977V396.25H517.949V400H495.926ZM536.375 400.477C533.807 400.477 531.619 399.778 529.812 398.381C528.006 396.972 526.625 394.932 525.67 392.261C524.716 389.58 524.239 386.341 524.239 382.545C524.239 378.773 524.716 375.551 525.67 372.881C526.636 370.199 528.023 368.153 529.83 366.744C531.648 365.324 533.83 364.614 536.375 364.614C538.92 364.614 541.097 365.324 542.903 366.744C544.722 368.153 546.108 370.199 547.062 372.881C548.028 375.551 548.511 378.773 548.511 382.545C548.511 386.341 548.034 389.58 547.08 392.261C546.125 394.932 544.744 396.972 542.938 398.381C541.131 399.778 538.943 400.477 536.375 400.477ZM536.375 396.727C538.92 396.727 540.898 395.5 542.307 393.045C543.716 390.591 544.42 387.091 544.42 382.545C544.42 379.523 544.097 376.949 543.449 374.824C542.813 372.699 541.892 371.08 540.688 369.966C539.494 368.852 538.057 368.295 536.375 368.295C533.852 368.295 531.881 369.54 530.46 372.028C529.04 374.506 528.33 378.011 528.33 382.545C528.33 385.568 528.648 388.136 529.284 390.25C529.92 392.364 530.835 393.972 532.028 395.074C533.233 396.176 534.682 396.727 536.375 396.727ZM566.375 400.477C563.807 400.477 561.619 399.778 559.812 398.381C558.006 396.972 556.625 394.932 555.67 392.261C554.716 389.58 554.239 386.341 554.239 382.545C554.239 378.773 554.716 375.551 555.67 372.881C556.636 370.199 558.023 368.153 559.83 366.744C561.648 365.324 563.83 364.614 566.375 364.614C568.92 364.614 571.097 365.324 572.903 366.744C574.722 368.153 576.108 370.199 577.062 372.881C578.028 375.551 578.511 378.773 578.511 382.545C578.511 386.341 578.034 389.58 577.08 392.261C576.125 394.932 574.744 396.972 572.938 398.381C571.131 399.778 568.943 400.477 566.375 400.477ZM566.375 396.727C568.92 396.727 570.898 395.5 572.307 393.045C573.716 390.591 574.42 387.091 574.42 382.545C574.42 379.523 574.097 376.949 573.449 374.824C572.813 372.699 571.892 371.08 570.688 369.966C569.494 368.852 568.057 368.295 566.375 368.295C563.852 368.295 561.881 369.54 560.46 372.028C559.04 374.506 558.33 378.011 558.33 382.545C558.33 385.568 558.648 388.136 559.284 390.25C559.92 392.364 560.835 393.972 562.028 395.074C563.233 396.176 564.682 396.727 566.375 396.727ZM619.011 393.727L599.784 374.5L602.375 371.909L621.602 391.136L619.011 393.727ZM602.375 393.727L599.784 391.136L619.011 371.909L621.602 374.5L602.375 393.727ZM654.811 400.477C652.47 400.477 650.402 400.062 648.607 399.233C646.822 398.392 645.43 397.239 644.43 395.773C643.43 394.295 642.936 392.614 642.947 390.727C642.936 389.25 643.226 387.886 643.817 386.636C644.408 385.375 645.214 384.324 646.237 383.483C647.271 382.631 648.425 382.091 649.697 381.864V381.659C648.027 381.227 646.697 380.29 645.709 378.847C644.72 377.392 644.232 375.739 644.243 373.886C644.232 372.114 644.68 370.528 645.589 369.131C646.499 367.733 647.749 366.631 649.339 365.824C650.942 365.017 652.766 364.614 654.811 364.614C656.834 364.614 658.641 365.017 660.232 365.824C661.822 366.631 663.072 367.733 663.982 369.131C664.902 370.528 665.368 372.114 665.379 373.886C665.368 375.739 664.862 377.392 663.862 378.847C662.874 380.29 661.561 381.227 659.925 381.659V381.864C661.186 382.091 662.322 382.631 663.334 383.483C664.345 384.324 665.152 385.375 665.754 386.636C666.357 387.886 666.663 389.25 666.675 390.727C666.663 392.614 666.152 394.295 665.141 395.773C664.141 397.239 662.749 398.392 660.964 399.233C659.192 400.062 657.141 400.477 654.811 400.477ZM654.811 396.727C656.391 396.727 657.754 396.472 658.902 395.96C660.05 395.449 660.936 394.727 661.561 393.795C662.186 392.864 662.504 391.773 662.516 390.523C662.504 389.205 662.163 388.04 661.493 387.028C660.822 386.017 659.908 385.222 658.749 384.642C657.601 384.062 656.288 383.773 654.811 383.773C653.322 383.773 651.993 384.062 650.822 384.642C649.663 385.222 648.749 386.017 648.078 387.028C647.419 388.04 647.095 389.205 647.107 390.523C647.095 391.773 647.396 392.864 648.01 393.795C648.635 394.727 649.527 395.449 650.686 395.96C651.845 396.472 653.22 396.727 654.811 396.727ZM654.811 380.159C656.061 380.159 657.169 379.909 658.135 379.409C659.112 378.909 659.879 378.21 660.436 377.312C660.993 376.415 661.277 375.364 661.288 374.159C661.277 372.977 660.999 371.949 660.453 371.074C659.908 370.187 659.152 369.506 658.186 369.028C657.22 368.54 656.095 368.295 654.811 368.295C653.504 368.295 652.362 368.54 651.385 369.028C650.408 369.506 649.652 370.187 649.118 371.074C648.584 371.949 648.322 372.977 648.334 374.159C648.322 375.364 648.589 376.415 649.135 377.312C649.692 378.21 650.459 378.909 651.436 379.409C652.413 379.909 653.538 380.159 654.811 380.159ZM684.594 400.477C682.026 400.477 679.838 399.778 678.031 398.381C676.224 396.972 674.844 394.932 673.889 392.261C672.935 389.58 672.457 386.341 672.457 382.545C672.457 378.773 672.935 375.551 673.889 372.881C674.855 370.199 676.241 368.153 678.048 366.744C679.866 365.324 682.048 364.614 684.594 364.614C687.139 364.614 689.315 365.324 691.122 366.744C692.94 368.153 694.327 370.199 695.281 372.881C696.247 375.551 696.73 378.773 696.73 382.545C696.73 386.341 696.253 389.58 695.298 392.261C694.344 394.932 692.963 396.972 691.156 398.381C689.349 399.778 687.162 400.477 684.594 400.477ZM684.594 396.727C687.139 396.727 689.116 395.5 690.526 393.045C691.935 390.591 692.639 387.091 692.639 382.545C692.639 379.523 692.315 376.949 691.668 374.824C691.031 372.699 690.111 371.08 688.906 369.966C687.713 368.852 686.276 368.295 684.594 368.295C682.071 368.295 680.099 369.54 678.679 372.028C677.259 374.506 676.548 378.011 676.548 382.545C676.548 385.568 676.866 388.136 677.503 390.25C678.139 392.364 679.054 393.972 680.247 395.074C681.452 396.176 682.901 396.727 684.594 396.727ZM714.594 400.477C712.026 400.477 709.838 399.778 708.031 398.381C706.224 396.972 704.844 394.932 703.889 392.261C702.935 389.58 702.457 386.341 702.457 382.545C702.457 378.773 702.935 375.551 703.889 372.881C704.855 370.199 706.241 368.153 708.048 366.744C709.866 365.324 712.048 364.614 714.594 364.614C717.139 364.614 719.315 365.324 721.122 366.744C722.94 368.153 724.327 370.199 725.281 372.881C726.247 375.551 726.73 378.773 726.73 382.545C726.73 386.341 726.253 389.58 725.298 392.261C724.344 394.932 722.963 396.972 721.156 398.381C719.349 399.778 717.162 400.477 714.594 400.477ZM714.594 396.727C717.139 396.727 719.116 395.5 720.526 393.045C721.935 390.591 722.639 387.091 722.639 382.545C722.639 379.523 722.315 376.949 721.668 374.824C721.031 372.699 720.111 371.08 718.906 369.966C717.713 368.852 716.276 368.295 714.594 368.295C712.071 368.295 710.099 369.54 708.679 372.028C707.259 374.506 706.548 378.011 706.548 382.545C706.548 385.568 706.866 388.136 707.503 390.25C708.139 392.364 709.054 393.972 710.247 395.074C711.452 396.176 712.901 396.727 714.594 396.727Z" fill="black"/>
</g>
<defs>
<clipPath id="clip0_30_2">
<rect width="1200" height="800" fill="white"/>
</clipPath>
</defs>
</svg>
